<svg xmlns="http://www.w3.org/2000/svg" viewBox="0 0 41 90.6"><title>colores</title><rect x="5.2" y="44.9" width="7.4" height="2.65" style="fill:#10cf9b"/><rect x="33.9" y="35.7" width="2.7" height="2.65" style="fill:#10cf9b"/><rect x="5.2" y="51" width="22" height="2.65" style="fill:#10cf9b"/><path d="M41,29.1H0V0H41ZM2.7,26.5H38.4V2.7H2.7Z" style="fill:#10cf9b"/><path d="M41,59.8H0V30.7H41ZM2.7,57.2H38.4V33.4H2.7Z" style="fill:#10cf9b"/><rect x="5.2" y="75.6" width="7.4" height="2.65" style="fill:#10cf9b"/><rect x="33.9" y="66.4" width="2.7" height="2.65" style="fill:#10cf9b"/><rect x="5.2" y="81.7" width="22" height="2.65" style="fill:#10cf9b"/><path d="M41,90.6H0V61.4H41ZM2.7,87.9H38.4V64.1H2.7Z" style="fill:#10cf9b"/><path d="M31.9,21.6H14L23,6.1ZM18.6,19h8.7L23,11.4Z" style="fill:#10cf9b"/><path d="M17.9,18.9H9.1L15.6,7.6,20,15.3l-2.1,1.2Zm-4.2-2.6h3.8L15.6,13Z" style="fill:#10cf9b"/></svg>