<svg xmlns="http://www.w3.org/2000/svg" viewBox="0 0 71.8 90.6"><title>firmas</title><rect x="10" y="24.2" width="23.8" height="2.72" style="fill:#008fce"/><rect x="10" y="14.5" width="23.8" height="2.72" style="fill:#008fce"/><rect x="24.3" y="76.8" width="23.1" height="2.72" style="fill:#008fce"/><rect x="24.3" y="71.5" width="23.1" height="2.72" style="fill:#008fce"/><path d="M71.8,90.6H0V0H48.5L71.8,25.1ZM2.7,87.8H69.1V26.1L47.3,2.7H2.7Z" style="fill:#008fce"/><polygon points="70.4 27 46.6 27 46.6 9.5 49.3 9.5 49.3 24.2 70.4 24.2 70.4 27" style="fill:#008fce"/><path d="M57.2,81.5a6,6,0,0,1-6-6,6,6,0,0,1,12,0A6,6,0,0,1,57.2,81.5Zm0-9.2a3.2,3.2,0,0,0-3.3,3.2,3.3,3.3,0,0,0,3.3,3.3,3.2,3.2,0,0,0,3.2-3.3A3.2,3.2,0,0,0,57.2,72.3Z" style="fill:#008fce"/><rect x="10" y="34" width="53.2" height="2.72" style="fill:#008fce"/><rect x="10" y="43.8" width="53.2" height="2.72" style="fill:#008fce"/></svg>