<svg xmlns="http://www.w3.org/2000/svg" viewBox="0 0 45.2 73.7"><title>logotipo</title><path d="M45.2,27.9,29.1,0l-9,15.7L12.5,2.5,0,24.1H15.2L13,27.9Zm-5.3-3.1H18.4L29.1,6.2ZM5.3,21,12.5,8.6l5.8,10.2L17,21Z" style="fill:#008fce"/><polygon points="29.1 45.8 26.6 50.1 28.8 51.3 28.9 51.7 29.1 51.6 29.3 51.7 29.5 51.3 31.6 50.1 29.1 45.8" style="fill:#008fce"/><rect x="22.4" y="55.1" width="4.5" height="3.08" transform="translate(-36.8 49.7) rotate(-60)" style="fill:#008fce"/><polygon points="20.3 61.9 19.6 60.6 16.9 62.1 18.1 64.1 18.8 63.7 17.7 65.5 20.4 67.1 22.6 63.2 20.3 61.9" style="fill:#008fce"/><polygon points="18 70.6 17.6 70.6 16.4 69.9 16.6 69.9 16.6 66.8 14.3 66.8 14.3 69.9 15.2 69.9 13 73.7 18 73.7 18 71.2 18.2 70.9 18 70.8 18 70.6" style="fill:#008fce"/><rect x="22.5" y="70.6" width="4.5" height="3.08" style="fill:#008fce"/><rect x="31.4" y="70.6" width="4.4" height="3.08" style="fill:#008fce"/><polygon points="45.2 73.7 42.7 69.4 40.6 70.6 40.3 70.6 40.3 70.8 40.1 70.9 40.3 71.2 40.3 73.7 45.2 73.7" style="fill:#008fce"/><rect x="32.1" y="54.4" width="3.1" height="4.45" transform="translate(-23.8 24.4) rotate(-30)" style="fill:#008fce"/><rect x="36.5" y="62.1" width="3.1" height="4.45" transform="translate(-27.1 27.7) rotate(-30)" style="fill:#008fce"/><rect x="14.4" y="55.8" width="3.1" height="3.08" transform="translate(-26.5 15.6) rotate(-30)" style="fill:#008fce"/><polygon points="12.5 48.3 10 52.6 12.1 53.8 12.3 54.1 12.5 54 12.6 54.1 12.8 53.8 15 52.6 12.5 48.3" style="fill:#008fce"/><rect x="5.1" y="58.3" width="5" height="3.08" transform="translate(-48 36.5) rotate(-60)" style="fill:#008fce"/><polygon points="5 66.8 4.6 66.8 2.5 65.6 0 69.9 5 69.9 5 67.4 5.2 67.1 5 67 5 66.8" style="fill:#008fce"/><rect x="8.1" y="66.8" width="3.1" height="3.08" style="fill:#008fce"/></svg>