<?xml version="1.0" encoding="utf-8"?>
<!-- Generator: Adobe Illustrator 22.0.1, SVG Export Plug-In . SVG Version: 6.00 Build 0)  -->
<svg version="1.1" id="Capa_1" xmlns="http://www.w3.org/2000/svg" xmlns:xlink="http://www.w3.org/1999/xlink" x="0px" y="0px"
	 viewBox="0 0 38 38" style="enable-background:new 0 0 38 38;" xml:space="preserve">
<style type="text/css">
	.st0{fill:#FFFFFF;}
	.st1{fill:#DAD548;}
	.st2{fill:#B7C44B;}
	.st3{fill:#85AD50;}
	.st4{fill:#528B4B;}
	.st5{fill:#4A7244;}
	.st6{fill:#E3BE39;}
	.st7{fill:#3F697F;}
	.st8{fill:#D18C35;}
	.st9{fill:#2D3E71;}
	.st10{fill:#2C4786;}
	.st11{fill:#385F92;}
	.st12{fill:#912878;}
	.st13{fill:#3D619F;}
	.st14{fill:#548BBB;}
	.st15{fill:#7D2D75;}
	.st16{fill:#4B327E;}
	.st17{fill:#5185BA;}
	.st18{fill:#6FAFDA;}
</style>
<g>
	<rect class="st0" width="38" height="38"/>
	<rect class="st1" width="7.6" height="7.6"/>
	<rect x="7.6" class="st2" width="7.6" height="7.6"/>
	<rect x="15.2" class="st3" width="7.6" height="7.6"/>
	<rect x="22.8" class="st4" width="7.6" height="7.6"/>
	<rect x="30.4" class="st5" width="7.6" height="7.6"/>
	<rect y="7.6" class="st6" width="7.6" height="7.6"/>
	<rect x="30.4" y="7.6" class="st7" width="7.6" height="7.6"/>
	<rect y="15.2" class="st8" width="7.6" height="7.6"/>
	<rect x="15.2" y="15.2" class="st9" width="7.6" height="7.6"/>
	<rect x="22.8" y="15.2" class="st10" width="7.6" height="7.6"/>
	<rect x="30.4" y="15.2" class="st11" width="7.6" height="7.6"/>
	<rect y="22.8" class="st12" width="7.6" height="7.6"/>
	<rect x="22.8" y="22.8" class="st13" width="7.6" height="7.6"/>
	<rect x="30.4" y="22.8" class="st14" width="7.6" height="7.6"/>
	<rect y="30.4" class="st15" width="7.6" height="7.6"/>
	<rect x="15.2" y="30.4" class="st16" width="7.6" height="7.6"/>
	<rect x="22.8" y="30.4" class="st17" width="7.6" height="7.6"/>
	<rect x="30.4" y="30.4" class="st18" width="7.6" height="7.6"/>
</g>
</svg>
