<?xml version="1.0" encoding="utf-8"?>
<!-- Generator: Adobe Illustrator 22.0.1, SVG Export Plug-In . SVG Version: 6.00 Build 0)  -->
<svg version="1.1" id="Capa_1" xmlns="http://www.w3.org/2000/svg" xmlns:xlink="http://www.w3.org/1999/xlink" x="0px" y="0px"
	 viewBox="0 0 44.6 38" style="enable-background:new 0 0 44.6 38;" xml:space="preserve">
<style type="text/css">
	.st0{fill:#8ABCE4;}
	.st1{fill:#6FAEDE;}
	.st2{fill:#4EA1D7;}
</style>
<g>
	<path class="st0" d="M36.4,7.9c4.7-1.1,8.7,5.7,8.1,10.7c-0.7,5.8-11.3,26.9-32.1,15.4C3,28.8,2.6,15.2,9.2,6.8
		c2.7-3.4,8.2-7.2,10.3-6.7c2.1,0.5,1.5,1.1,0.6,3.8c-2.8,9-9.4-0.7-12.3,6.1c-2.5,5.9,6.7,20,21.8,18C38.3,27,28.9,9.6,36.4,7.9z"
		/>
	<path class="st1" d="M20.1,14.8c-3.1-11.2,10-6.5,16.2-3.1c4.1,2.3,4.3,19.7-4.3,23.8C22.3,40,7.1,38.9,2.6,29.2
		c-1.9-4-3.2-11.4-0.9-14.5c2.3-3.1,6.2-10.4,12.7,0c3.6,5.7-14.4,11.3-10.1,16c4.3,4.7,41,2.8,31.7-16.1
		C34.4,11.4,23.4,26.5,20.1,14.8z"/>
	<path class="st2" d="M27.8,7.3C22.9,3.6,23.7-5.5,33,4.6c6.8,7.4,11.2,24.6-4.1,31.3c-9.8,4.3-19-1.6-23.5-11.2
		C4.3,22.3-0.4,14.6,0,10.3c0.5-5.2,10.3-5.4,8.3-4.2c-8.3,5.2-4.2,14.6,3,24.5c3.5,4.8,28.9,12.3,26.3-13.5
		C37.2,11.7,30.4,9.3,27.8,7.3z"/>
	<path class="st1" d="M7.8,15.6c0,0,5.6,23.2,18.6,17.3c16.5-7.5-0.2-4.6,1.2-8.6c2.6-7.7,12,2.4,4.2,7.8C24,37.5,5.9,36.6,5.5,16.3
		C5.4,9.7,7.8,15.6,7.8,15.6z"/>
</g>
</svg>
